#!OML:ASF I:\Actors\actors\Patient Classification 2\Patient 1\Session 1\actor1.ASF
:FULLY-SPECIFIED
:DEGREES
210
root -0.178214 18.637 5.76315 0.609184 15.7198 0.474105
lowerback 2.2037 -0.558905 13.6937
upperback -2.18279 -0.0365556 4.57783
thorax -3.58437 -0.285857 -2.83269
lowerneck -10.1905 -8.42233 -11.1979
upperneck 25.4926 -8.96166 -2.2863
head 10.307 -5.42145 -0.0467229
rclavicle 3.48867e-014 -6.99722e-014
rhumerus -15.9329 -9.59673 -28.0123
rradius 44.1752
rwrist 4.48032
rhand 0.9474 -44.3658
rfingers 7.12502
rthumb 26.4975 -72.533
lclavicle 3.48867e-014 -6.99722e-014
lhumerus 42.5026 -62.3435 38.6383
lradius 124.006
lwrist 48.3182
lhand -2.53508 -36.9865
lfingers 7.12502
lthumb 23.1601 -8.35881
rfemur 0 0 0
rtibia 0
rfoot 0 0
rtoes 0
lfemur -8.16695 -0.809745 -14.5654
ltibia 25.1416
lfoot -17.1654 -1.64259
ltoes -57.3799
211
root -0.193197 18.643 5.78298 0.823962 15.5848 0.404464
lowerback 1.87919 -0.475129 13.336
upperback -2.07916 -0.0145379 4.50374
thorax -3.27991 -0.247917 -2.72243
lowerneck -10.2574 -8.20387 -10.9234
upperneck 25.1249 -8.66087 -2.44872
head 10.1458 -5.26741 -0.0963945
rclavicle 5.96354e-015 2.22639e-014
rhumerus -17.1504 -7.2936 -27.6977
rradius 45.5087
rwrist 3.72792
rhand 1.35687 -44.1148
rfingers 7.12502
rthumb 26.8894 -72.2222
lclavicle 5.96354e-015 2.22639e-014
lhumerus 37.3973 -62.3806 42.3493
lradius 124.555
lwrist 47.3164
lhand -2.75459 -36.7481
lfingers 7.12502
lthumb 22.9495 -8.09407
rfemur 0 0 0
rtibia 0
rfoot 0 0
rtoes 0
lfemur -8.2964 -1.03298 -14.4534
ltibia 25.0721
lfoot -17.2388 -1.24758
ltoes -57.3764
212
root -0.209814 18.6467 5.80218 1.00979 15.4432 0.31677
lowerback 2.39459 -0.379105 13.4515
upperback -2.42376 0.233693 4.10294
thorax -3.90536 -0.182851 -3.21283
lowerneck -10.2124 -8.06314 -10.6779
upperneck 25.1392 -8.54543 -2.33854
head 10.1251 -5.18113 -0.077679
rclavicle -2.0773e-014 4.13472e-014
rhumerus -19.2037 -5.34577 -27.7181
rradius 47.2692
rwrist 3.15432
rhand 2.21241 -44.166
rfingers 7.12502
rthumb 27.7077 -72.1447
lclavicle -2.0773e-014 4.13472e-014
lhumerus 31.6023 -63.1826 46.5188
lradius 125.051
lwrist 46.2415
lhand -2.1417 -36.8989
lfingers 7.12502
lthumb 23.5375 -8.31911
rfemur 0 0 0
rtibia 0
rfoot 0 0
rtoes 0
lfemur -8.40632 -1.20284 -14.3059
ltibia 25.0076
lfoot -17.3019 -0.932655
ltoes -57.2265
213
root -0.227284 18.6483 5.82232 1.16408 15.2623 0.286922
lowerback 2.61634 -0.285799 13.3128
upperback -2.54168 0.390328 3.80356
thorax -4.13043 -0.125006 -3.46059
lowerneck -10.2535 -7.94969 -10.6184
upperneck 25.0036 -8.45326 -2.10006
head 10.0845 -5.10446 0.0105418
rclavicle 3.17062e-014 -2.70347e-014
rhumerus -20.9503 -4.40682 -27.9604
rradius 49.2493
rwrist 2.6946
rhand 3.18582 -45.5305
rfingers 7.12502
rthumb 28.6381 -73.3559
lclavicle 3.17062e-014 -2.70347e-014
lhumerus 25.6946 -63.6518 51.1318
lradius 125.248
lwrist 45.4298
lhand -0.842175 -37.3681
lfingers 7.12502
lthumb 24.7835 -8.95389
rfemur 0 0 0
rtibia 0
rfoot 0 0
rtoes 0
lfemur -8.45478 -1.46215 -14.2331
ltibia 24.9534
lfoot -17.451 -0.496515
ltoes -57.1606
214
root -0.244096 18.6494 5.84223 1.33075 15.0321 0.306712
lowerback 2.31842 -0.163503 12.7789
upperback -2.34508 0.450908 3.71406
thorax -3.73513 -0.0537151 -3.26989
lowerneck -10.3191 -7.86136 -10.5919
upperneck 24.5477 -8.35838 -1.98683
head 9.92977 -5.03539 0.0674763
rclavicle -3.08116e-015 -8.74653e-014
rhumerus -22.3012 -4.43243 -28.2007
rradius 51.1368
rwrist 1.6447
rhand 3.14945 -45.0492
rfingers 7.12502
rthumb 28.6034 -72.8804
lclavicle -3.08116e-015 -8.74653e-014
lhumerus 20.497 -63.71 55.7282
lradius 125.102
lwrist 44.9881
lhand 0.342155 -37.9468
lfingers 7.12502
lthumb 25.9181 -9.69354
rfemur 0 0 0
rtibia 0
rfoot 0 0
rtoes 0
lfemur -8.49145 -1.76899 -14.2272
ltibia 24.9116
lfoot -17.6612 0.019282
ltoes -57.1885
215
root -0.259826 18.651 5.85905 1.47409 14.7815 0.207985
lowerback 2.23954 -0.067523 12.5244
upperback -2.25582 0.535708 3.49846
thorax -3.57841 0.00211765 -3.36264
lowerneck -10.3394 -7.75216 -10.3394
upperneck 24.1203 -8.30422 -1.80704
head 9.76777 -4.95939 0.108553
rclavicle 4.29375e-014 3.02153e-014
rhumerus -23.8788 -4.73087 -28.7439
rradius 53.0073
rwrist -0.0347526
rhand 2.18037 -43.5048
rfingers 7.12502
rthumb 27.6771 -71.4884
lclavicle 4.29375e-014 3.02153e-014
lhumerus 15.8529 -63.9604 59.9259
lradius 124.821
lwrist 44.6319
lhand 1.26267 -38.4945
lfingers 7.12502
lthumb 26.7992 -10.3732
rfemur 0 0 0
rtibia 0
rfoot 0 0
rtoes 0
lfemur -8.54429 -2.09671 -14.0959
ltibia 24.8895
lfoot -17.8721 0.566112
ltoes -57.1996
216
root -0.273749 18.6514 5.87246 1.52073 14.5648 0.0658028
lowerback 2.13571 0.0232191 12.2371
upperback -2.06342 0.602319 3.36351
thorax -3.30202 0.0608946 -3.35136
lowerneck -10.3838 -7.67608 -10.3731
upperneck 23.6417 -8.29615 -1.37347
head 9.62274 -4.90184 0.273687
rclavicle 2.61899e-014 8.42847e-014
rhumerus -25.2374 -5.31714 -29.1695
rradius 54.62
rwrist -1.90299
rhand 1.51722 -42.1222
rfingers 7.12502
rthumb 27.0428 -70.206
lclavicle 2.61899e-014 8.42847e-014
lhumerus 12.5138 -64.1806 63.3672
lradius 124.481
lwrist 44.1136
lhand 2.16101 -38.8422
lfingers 7.12502
lthumb 27.6586 -10.8556
rfemur 0 0 0
rtibia 0
rfoot 0 0
rtoes 0
lfemur -8.5432 -2.35086 -13.9179
ltibia 24.8926
lfoot -18.0097 1.00306
ltoes -57.2035
217
root -0.285297 18.6504 5.88098 1.47499 14.4013 -0.0204872
lowerback 2.24695 0.0763981 11.9614
upperback -1.90958 0.657893 3.18406
thorax -3.19124 0.102813 -3.39239
lowerneck -10.4409 -7.59734 -10.4496
upperneck 23.3198 -8.28976 -0.859685
head 9.54233 -4.84421 0.467468
rclavicle 1.6201e-014 -4.6118e-014
rhumerus -26.3924 -6.17011 -29.6205
rradius 55.8426
rwrist -3.72754
rhand 1.6211 -41.4358
rfingers 7.12502
rthumb 27.1422 -69.5041
lclavicle 1.6201e-014 -4.6118e-014
lhumerus 10.5292 -64.627 65.7377
lradius 124.235
lwrist 43.4863
lhand 2.70806 -39.0077
lfingers 7.12502
lthumb 28.1816 -11.1061
rfemur 0 0 0
rtibia 0
rfoot 0 0
rtoes 0
lfemur -8.46891 -2.52271 -13.8046
ltibia 24.919
lfoot -18.0981 1.28198
ltoes -57.1793
